<?xml version="1.0" encoding="iso-8859-1"?>
<!-- Generator: Adobe Illustrator 19.0.0, SVG Export Plug-In . SVG Version: 6.00 Build 0)  -->
<svg xmlns="http://www.w3.org/2000/svg" xmlns:xlink="http://www.w3.org/1999/xlink" version="1.1" id="Capa_1" x="0px" y="0px" viewBox="0 0 512 512" style="enable-background:new 0 0 512 512;" xml:space="preserve" width="512px" height="512px">
<g>
	<g>
		<path d="M435.105,0.039H7.5c-4.142,0-7.5,3.358-7.5,7.5v105.623c0,4.142,3.358,7.5,7.5,7.5h317.749c4.143,0,7.5-3.358,7.5-7.5    c0-4.142-3.357-7.5-7.5-7.5H15V15.039h412.605v90.623h-67.868c-4.143,0-7.5,3.358-7.5,7.5c0,4.142,3.357,7.5,7.5,7.5h75.368    c4.143,0,7.5-3.358,7.5-7.5V7.539C442.605,3.397,439.248,0.039,435.105,0.039z" fill="#dbdbdb"/>
	</g>
</g>
<g>
	<g>
		<path d="M145.529,30.454H132.61c-4.142,0-7.5,3.358-7.5,7.5c0,4.142,3.358,7.5,7.5,7.5h12.919c4.142,0,7.5-3.358,7.5-7.5    C153.029,33.813,149.671,30.454,145.529,30.454z" fill="#dbdbdb"/>
	</g>
</g>
<g>
	<g>
		<path d="M361.5,56.208H132.61c-4.142,0-7.5,3.358-7.5,7.5c0,4.142,3.358,7.5,7.5,7.5H361.5c4.143,0,7.5-3.358,7.5-7.5    C369,59.566,365.643,56.208,361.5,56.208z" fill="#dbdbdb"/>
	</g>
</g>
<g>
	<g>
		<path d="M361.5,75.247H132.61c-4.142,0-7.5,3.358-7.5,7.5c0,4.142,3.358,7.5,7.5,7.5H361.5c4.143,0,7.5-3.358,7.5-7.5    C369,78.605,365.643,75.247,361.5,75.247z" fill="#dbdbdb"/>
	</g>
</g>
<g>
	<g>
		<path d="M241.402,30.454h-70.715c-4.142,0-7.5,3.358-7.5,7.5c0,4.142,3.358,7.5,7.5,7.5h70.715c4.142,0,7.5-3.358,7.5-7.5    C248.902,33.813,245.544,30.454,241.402,30.454z" fill="#dbdbdb"/>
	</g>
</g>
<g>
	<g>
		<path d="M70.685,28.432c-16.861,0-30.58,13.718-30.58,30.579c0,16.861,13.718,30.579,30.579,30.579    c16.861,0,30.579-13.717,30.579-30.579S87.546,28.432,70.685,28.432z M70.684,74.591c-8.59,0-15.579-6.989-15.579-15.579    c0-8.59,6.989-15.579,15.579-15.579c8.59,0,15.579,6.989,15.579,15.579C86.263,67.602,79.274,74.591,70.684,74.591z" fill="#dbdbdb"/>
	</g>
</g>
<g>
	<g>
		<path d="M145.529,165.113H132.61c-4.142,0-7.5,3.358-7.5,7.5c0,4.142,3.358,7.5,7.5,7.5h12.919c4.142,0,7.5-3.358,7.5-7.5    C153.029,168.471,149.671,165.113,145.529,165.113z" fill="#dbdbdb"/>
	</g>
</g>
<g>
	<g>
		<path d="M241.402,165.113h-70.715c-4.142,0-7.5,3.358-7.5,7.5c0,4.142,3.358,7.5,7.5,7.5h70.715c4.142,0,7.5-3.358,7.5-7.5    C248.902,168.471,245.544,165.113,241.402,165.113z" fill="#dbdbdb"/>
	</g>
</g>
<g>
	<g>
		<path d="M70.685,163.091c-16.861,0-30.579,13.717-30.579,30.579s13.718,30.579,30.579,30.579s30.579-13.717,30.579-30.579    S87.546,163.091,70.685,163.091z M70.685,209.249c-8.59,0-15.579-6.989-15.579-15.579c0-8.59,6.989-15.579,15.579-15.579    s15.579,6.989,15.579,15.579C86.264,202.26,79.274,209.249,70.685,209.249z" fill="#dbdbdb"/>
	</g>
</g>
<g>
	<g>
		<path d="M145.529,299.772H132.61c-4.142,0-7.5,3.358-7.5,7.5c0,4.142,3.358,7.5,7.5,7.5h12.919c4.142,0,7.5-3.358,7.5-7.5    C153.029,303.13,149.671,299.772,145.529,299.772z" fill="#dbdbdb"/>
	</g>
</g>
<g>
	<g>
		<path d="M241.402,299.772h-70.715c-4.142,0-7.5,3.358-7.5,7.5c0,4.142,3.358,7.5,7.5,7.5h70.715c4.142,0,7.5-3.358,7.5-7.5    C248.902,303.13,245.544,299.772,241.402,299.772z" fill="#dbdbdb"/>
	</g>
</g>
<g>
	<g>
		<path d="M70.685,297.75c-16.861,0-30.58,13.717-30.58,30.579c0,16.861,13.718,30.579,30.579,30.579    c16.861,0,30.579-13.718,30.579-30.579S87.546,297.75,70.685,297.75z M70.684,343.909c-8.59,0-15.579-6.989-15.579-15.579    c0-8.59,6.989-15.579,15.579-15.579c8.59,0,15.579,6.989,15.579,15.579C86.263,336.919,79.274,343.909,70.684,343.909z" fill="#dbdbdb"/>
	</g>
</g>
<g>
	<g>
		<path d="M468.146,399.152l-36.952-9.172h3.911c4.143,0,7.5-3.358,7.5-7.5v-58.567c0.185-0.041,0.376-0.073,0.559-0.118    c12.969-3.026,22.026-14.464,22.026-27.814c0-13.214-8.953-24.628-21.742-27.749c-1.217-0.302-2.459-0.515-3.714-0.652    c13.971-39.446,10.837-77.189,10.685-78.91c-0.344-3.87-3.586-6.836-7.471-6.836h-0.338v-39.632c0-4.142-3.357-7.5-7.5-7.5H7.5    c-4.142,0-7.5,3.358-7.5,7.5v105.62c0,4.142,3.358,7.5,7.5,7.5h292.996c0.569,4.561,1.31,8.705,2.021,12.13    c-1.781,0.102-3.524,0.365-5.168,0.784c-1.207,0.295-2.366,0.685-3.5,1.122h-151.78c-4.142,0-7.5,3.358-7.5,7.5    c0,4.142,3.358,7.5,7.5,7.5h135.966c-1.584,3.57-2.455,7.509-2.455,11.624c0,13.338,9.06,24.775,21.955,27.794    c2.126,0.521,4.358,0.786,6.635,0.786c0.685,0,1.366-0.033,2.044-0.081c0.081,0.349,0.156,0.699,0.242,1.046H132.61    c-4.142,0-7.5,3.358-7.5,7.5c0,4.142,3.358,7.5,7.5,7.5h179.606c0.734,1.377,1.518,2.722,2.345,4.039H132.61    c-4.142,0-7.5,3.358-7.5,7.5c0,4.142,3.358,7.5,7.5,7.5h194.667c0.06,0,0.118-0.008,0.178-0.009c2.36,2.033,4.863,3.9,7.495,5.587    v2.479l-0.858-0.517c-1.888-1.137-4.179-1.385-6.265-0.683c-2.087,0.703-3.76,2.288-4.574,4.335l-1.68,4.224H15v-90.623h93.667    c4.142,0,7.5-3.358,7.5-7.5c0-4.142-3.358-7.5-7.5-7.5H7.5c-4.142,0-7.5,3.358-7.5,7.5V382.48c0,4.142,3.358,7.5,7.5,7.5h302.075    l-36.953,9.172c-22.271,5.53-39.159,23.706-43.024,46.305c-0.698,4.083,2.045,7.958,6.128,8.657    c0.428,0.073,0.853,0.108,1.273,0.108c3.587,0,6.759-2.582,7.384-6.237c2.861-16.727,15.364-30.18,31.854-34.275l40.926-10.158    l24.25,24.979c0.101,0.222,0.2,0.445,0.323,0.659l11.079,19.19c0.185,0.32,0.396,0.619,0.621,0.904l-7.156,47.676h-59.7v-18.817    c0-4.142-3.357-7.5-7.5-7.5s-7.5,3.358-7.5,7.5v18.817h-27.81v-18.35c0-4.142-3.358-7.5-7.5-7.5c-4.142,0-7.5,3.358-7.5,7.5v25.85    c0,4.142,3.358,7.5,7.5,7.5H504.5c4.143,0,7.5-3.358,7.5-7.5v-49.24C512,428.612,493.966,405.555,468.146,399.152z     M436.269,282.413c1.2-0.029,2.41,0.09,3.592,0.384c6.082,1.484,10.329,6.905,10.329,13.184c0,6.342-4.291,11.772-10.506,13.223    c-0.972,0.237-2.006,0.357-3.074,0.357c-0.115,0-0.227-0.014-0.341-0.017V282.413z M304.509,309.553    c-1.165,0.029-2.336-0.085-3.479-0.364c-6.153-1.441-10.45-6.872-10.45-13.208c0-6.271,4.248-11.688,10.401-13.192    c1.011-0.258,2.084-0.388,3.188-0.388c0.114,0,0.226,0.013,0.34,0.016V309.553z M132.61,205.867h176.751    c-1.07,1.27-2.033,2.621-2.9,4.039H132.61c-4.142,0-7.5,3.358-7.5,7.5c0,4.142,3.358,7.5,7.5,7.5h168.282    c-0.993,5.018-1.384,10.263-1.382,15.415H15v-90.62h412.61v32.132h-82.663c-9.626,0-16.37,4.164-20.767,9.034H132.61    c-4.142,0-7.5,3.358-7.5,7.5C125.11,202.509,128.468,205.867,132.61,205.867z M318.92,266.238l-1.27,0.198    c-1.246-5.583-2.822-14.213-3.142-23.233c-0.643-18.121,3.798-28.999,13.197-32.332c2.387-0.846,4.113-2.569,4.711-5.029    c0.447-1.504,3.155-9.01,12.53-9.01h90.824v0.001c0.227,12.73-0.718,41.354-11.634,69.683l-1.235-0.207v-9.618    c0-3.602-2.561-6.696-6.1-7.368c-1.422-0.27-35.455-6.618-90.381-6.618c-4.143,0-7.5,3.358-7.5,7.5V266.238z M427.605,342.245    v32.735H419.2l-1.68-4.224c-0.814-2.047-2.487-3.632-4.574-4.335c-2.086-0.702-4.379-0.453-6.265,0.683l-0.852,0.513v-2.476    C414.808,359.388,422.299,351.523,427.605,342.245z M319.51,309.651v-28.323l8.067-1.26c3.651-0.57,6.343-3.715,6.343-7.41    v-14.911c36.396,0.404,62.705,3.653,73.98,5.326v9.585c0,3.664,2.647,6.792,6.262,7.397l7.107,1.19v28.406    c0,28.055-22.824,50.88-50.88,50.88C342.333,360.531,319.51,337.706,319.51,309.651z M390.829,372.269v4.386l-20.443,12.317    l-20.437-12.313v-4.39h0.001c6.439,2.107,13.305,3.262,20.439,3.262C377.524,375.531,384.39,374.376,390.829,372.269z     M352.118,418.028l-22.363-23.037l4.168-10.475l26.709,16.092L352.118,418.028z M361.448,496.961l6.729-44.83h4.424l6.729,44.83    H361.448z M377.131,437.131H363.64l-2.254-3.905l9.001-18.418l9,18.415L377.131,437.131z M406.85,384.514l4.168,10.475    l-22.363,23.037l-8.514-17.42L406.85,384.514z M497,496.961h-27.806v-18.817c0-4.142-3.357-7.5-7.5-7.5s-7.5,3.358-7.5,7.5v18.817    h-59.696l-7.158-47.683c0.223-0.283,0.432-0.579,0.615-0.897l11.08-19.19c0.123-0.212,0.221-0.433,0.321-0.653l24.255-24.985    l40.924,10.158c19.114,4.74,32.465,21.81,32.465,41.51V496.961z" fill="#dbdbdb"/>
	</g>
</g>
<g>
	<g>
		<path d="M343.189,287.071c-4.142,0-7.5,3.358-7.5,7.5v5.223c0,4.142,3.358,7.5,7.5,7.5c4.142,0,7.5-3.358,7.5-7.5v-5.223    C350.689,290.43,347.331,287.071,343.189,287.071z" fill="#dbdbdb"/>
	</g>
</g>
<g>
	<g>
		<path d="M398.981,287.071c-4.142,0-7.5,3.358-7.5,7.5v5.223c0,4.142,3.358,7.5,7.5,7.5c4.142,0,7.5-3.358,7.5-7.5v-5.223    C406.481,290.43,403.123,287.071,398.981,287.071z" fill="#dbdbdb"/>
	</g>
</g>
<g>
</g>
<g>
</g>
<g>
</g>
<g>
</g>
<g>
</g>
<g>
</g>
<g>
</g>
<g>
</g>
<g>
</g>
<g>
</g>
<g>
</g>
<g>
</g>
<g>
</g>
<g>
</g>
<g>
</g>
</svg>
